<?xml version="1.0" encoding="utf-8"?>
<svg xmlns="http://www.w3.org/2000/svg" viewBox="108.3121 227.5607 380.9626 97.2383" width="500px" height="127.621711294798px" preserveAspectRatio="none"><defs><clipPath id="clip_0"><path transform="matrix(1,0,0,-1,0,792)" d="M0 792H612V0H0Z"/></clipPath></defs><g transform="matrix(1, 0, 0, 1, -7.206809043884306, -120.070068359375)" id="object-0"><g><path transform="matrix(1,0,0,-1,164.2539,403.5526)" d="M0 0V34.775L-12.308 0H-19.742L-32.049 34.775V0H-48.735V55.095H-25.689L-16.025 27.011-6.36 55.095H16.686V0Z" fill="#c12032"/><path transform="matrix(1,0,0,-1,164.2539,403.5526)" stroke-width="1" stroke-linecap="round" stroke-linejoin="round" fill="none" stroke="#231f20" d="M0 0V34.775L-12.308 0H-19.742L-32.049 34.775V0H-48.735V55.095H-25.689L-16.025 27.011-6.36 55.095H16.686V0H0Z"/><path transform="matrix(1,0,0,-1,0,792)" d="M189.861 443.543H206.547V388.448H189.861Z" fill="#c12032"/><path transform="matrix(1,0,0,-1,0,792)" stroke-width="1" stroke-linecap="round" stroke-linejoin="round" fill="none" stroke="#231f20" d="M189.861 443.543H206.547V388.448H189.861Z"/><path transform="matrix(1,0,0,-1,316.6561,403.5526)" d="M0 0-7.104 31.223-14.207 0H-31.719L-47.496 55.095H-28.828L-21.724 21.394-13.381 55.095H-.826L7.517 21.394 14.538 55.095H33.288L17.512 0Z" fill="#c12032"/><path transform="matrix(1,0,0,-1,316.6561,403.5526)" stroke-width="1" stroke-linecap="round" stroke-linejoin="round" fill="none" stroke="#231f20" d="M0 0-7.104 31.223-14.207 0H-31.719L-47.496 55.095H-28.828L-21.724 21.394-13.381 55.095H-.826L7.517 21.394 14.538 55.095H33.288L17.512 0H0Z"/><path transform="matrix(1,0,0,-1,353.4147,403.5526)" d="M0 0V55.095H41.797V41.218H16.686V34.775H41.218V20.898H16.686V13.877H41.797V0Z" fill="#c12032"/><path transform="matrix(1,0,0,-1,353.4147,403.5526)" stroke-width="1" stroke-linecap="round" stroke-linejoin="round" fill="none" stroke="#231f20" d="M0 0V55.095H41.797V41.218H16.686V34.775H41.218V20.898H16.686V13.877H41.797V0H0Z"/><g clip-path="url(#clip_0)" style=""><path transform="matrix(1,0,0,-1,407.106,383.3978)" d="M0 0C4.13-3.965 10.325-7.104 17.759-7.104 20.898-7.104 23.872-6.03 23.872-3.882 23.872-1.735 21.559-.661 16.107 .33 7.021 1.982-6.856 4.13-6.856 17.925-6.856 27.259 .909 35.767 16.025 35.767 25.028 35.767 33.123 33.206 39.401 28.085L30.48 16.273C25.689 19.907 19.494 21.724 15.116 21.724 10.986 21.724 10.077 20.237 10.077 18.833 10.077 16.686 12.308 15.942 18.172 14.951 27.259 13.381 40.723 10.738 40.723-1.982 40.723-14.125 31.719-21.146 16.933-21.146 5.204-21.146-2.808-17.677-8.673-12.39Z" fill="#c12032"/><path transform="matrix(1,0,0,-1,407.106,383.3978)" stroke-width="1" stroke-linecap="round" stroke-linejoin="round" fill="none" stroke="#231f20" d="M0 0C4.13-3.965 10.325-7.104 17.759-7.104 20.898-7.104 23.872-6.03 23.872-3.882 23.872-1.735 21.559-.661 16.107 .33 7.021 1.982-6.856 4.13-6.856 17.925-6.856 27.259 .909 35.767 16.025 35.767 25.028 35.767 33.123 33.206 39.401 28.085L30.48 16.273C25.689 19.907 19.494 21.724 15.116 21.724 10.986 21.724 10.077 20.237 10.077 18.833 10.077 16.686 12.308 15.942 18.172 14.951 27.259 13.381 40.723 10.738 40.723-1.982 40.723-14.125 31.719-21.146 16.933-21.146 5.204-21.146-2.808-17.677-8.673-12.39L0 0Z"/><path transform="matrix(1,0,0,-1,465.0925,403.5526)" d="M0 0V40.558H-14.786V55.095H31.389V40.558H16.686V0Z" fill="#c12032"/><path transform="matrix(1,0,0,-1,465.0925,403.5526)" stroke-width="1" stroke-linecap="round" stroke-linejoin="round" fill="none" stroke="#231f20" d="M0 0V40.558H-14.786V55.095H31.389V40.558H16.686V0H0Z"/><path transform="matrix(1,0,0,-1,229.8262,394.2722)" d="M0 0C0 1.559 .134 3.209 .229 4.183 .285 4.749 .147 5.317-.164 5.794L-.563 6.406C-.751 6.694-.708 7.076-.46 7.315-.323 7.447-.142 7.518 .041 7.518 .139 7.518 .236 7.499 .329 7.457 1.661 6.86 2.638 5.832 3.294 4.924 3.886 4.107 4.286 3.169 4.497 2.182 4.912 .234 6.29-4.13 10.306-4.13 12.912-4.13 15.024-2.018 15.024 .587 15.024 5.67 7.941 7.14 6.514 12.677-.973 14.481-6.537 21.223-6.537 29.265-6.537 37.253-1.047 43.957 6.365 45.815H-14.358V-9.28H5.65C2.283-7.483 0-4.001 0 0" fill="#c12032"/><path transform="matrix(1,0,0,-1,229.8262,394.2722)" stroke-width="1" stroke-linecap="round" stroke-linejoin="round" fill="none" stroke="#231f20" d="M0 0C0 1.559 .134 3.209 .229 4.183 .285 4.749 .147 5.317-.164 5.794L-.563 6.406C-.751 6.694-.708 7.076-.46 7.315-.323 7.447-.142 7.518 .041 7.518 .139 7.518 .236 7.499 .329 7.457 1.661 6.86 2.638 5.832 3.294 4.924 3.886 4.107 4.286 3.169 4.497 2.182 4.912 .234 6.29-4.13 10.306-4.13 12.912-4.13 15.024-2.018 15.024 .587 15.024 5.67 7.941 7.14 6.514 12.677-.973 14.481-6.537 21.223-6.537 29.265-6.537 37.253-1.047 43.957 6.365 45.815H-14.358V-9.28H5.65C2.283-7.483 0-4.001 0 0Z"/><path transform="matrix(1,0,0,-1,245.8011,348.838)" d="M0 0C6.751-2.274 11.614-8.652 11.614-16.169 11.614-24.697 5.359-31.763-2.814-33.03-1.249-37.07 5.742-37.816 5.757-45.484 5.74-49.105 3.853-52.296 .988-54.19 14.822-51.925 24.514-42.384 24.514-27.126 24.514-11.527 14.385-1.968 0 0" fill="#c12032"/><path transform="matrix(1,0,0,-1,245.8011,348.838)" stroke-width="1" stroke-linecap="round" stroke-linejoin="round" fill="none" stroke="#231f20" d="M0 0C6.751-2.274 11.614-8.652 11.614-16.169 11.614-24.697 5.359-31.763-2.814-33.03-1.249-37.07 5.742-37.816 5.757-45.484 5.74-49.105 3.853-52.296 .988-54.19 14.822-51.925 24.514-42.384 24.514-27.126 24.514-11.527 14.385-1.968 0 0Z"/><path transform="matrix(1,0,0,-1,151.4874,430.9959)" d="M0 0C0 8.284 6.273 13.873 14.315 13.873 20.99 13.873 24.449 10.214 26.218 6.675L20.267 3.86C19.382 5.992 17.09 7.761 14.315 7.761 10.133 7.761 7.037 4.383 7.037 0 7.037-4.383 10.133-7.761 14.315-7.761 17.09-7.761 19.382-5.992 20.267-3.86L26.218-6.675C24.489-10.133 20.99-13.873 14.315-13.873 6.273-13.873 0-8.243 0 0" fill="#231f20"/><path transform="matrix(1,0,0,-1,193.0658,423.3959)" d="M0 0H-5.469V-6.032H0C1.81-6.032 3.338-4.866 3.338-3.016 3.338-1.166 1.81 0 0 0M2.574-20.991-1.93-11.903H-5.469V-20.991H-12.385V5.831H1.045C6.997 5.831 10.375 1.89 10.375-3.096 10.375-7.761 7.52-10.254 5.026-11.139L10.495-20.991Z" fill="#231f20"/><path transform="matrix(1,0,0,-1,218.8416,423.597)" d="M0 0-3.74-10.897H3.78ZM6.957-20.789 5.589-16.728H-5.549L-6.916-20.789H-14.436L-4.343 6.032H4.343L14.476-20.789Z" fill="#231f20"/><path transform="matrix(1,0,0,-1,253.5441,444.3864)" d="M0 0-11.34 16.205V0H-18.256V26.821H-11.139L-.281 11.38V26.821H6.675V0Z" fill="#231f20"/><path transform="matrix(1,0,0,-1,265.0447,444.3864)" d="M0 0V26.821H19.663V20.991H6.916V16.527H19.382V10.656H6.916V5.831H19.663V0Z" fill="#231f20"/><path transform="matrix(1,0,0,-1,300.7524,435.4191)" d="M0 0C1.93-1.93 4.906-3.539 8.565-3.539 10.938-3.539 12.385-2.533 12.385-1.247 12.385 .281 10.656 .885 7.801 1.488 3.378 2.372-2.815 3.498-2.815 9.852-2.815 14.356 1.005 18.256 7.881 18.256 12.184 18.256 15.924 16.969 18.779 14.516L14.999 9.57C12.747 11.42 9.812 12.345 7.439 12.345 5.147 12.345 4.262 11.42 4.262 10.254 4.262 8.846 5.911 8.364 8.887 7.801 13.31 6.876 19.422 5.589 19.422-.483 19.422-5.871 15.441-9.45 8.244-9.45 2.815-9.45-.965-7.761-3.659-5.187Z" fill="#231f20"/><path transform="matrix(1,0,0,-1,323.3917,444.3864)" d="M0 0V26.821H19.663V20.991H6.916V16.527H19.382V10.656H6.916V5.831H19.663V0Z" fill="#231f20"/><path transform="matrix(1,0,0,-1,359.4611,423.3959)" d="M0 0H-5.469V-6.032H0C1.81-6.032 3.338-4.866 3.338-3.016 3.338-1.166 1.81 0 0 0M2.574-20.991-1.93-11.903H-5.469V-20.991H-12.385V5.831H1.046C6.997 5.831 10.375 1.89 10.375-3.096 10.375-7.761 7.52-10.254 5.026-11.139L10.495-20.991Z" fill="#231f20"/><path transform="matrix(1,0,0,-1,380.4919,444.3864)" d="M0 0-10.093 26.821H-2.252L4.343 7.479 10.978 26.821H18.819L8.686 0Z" fill="#231f20"/><path transform="matrix(1,0,0,-1,0,792)" d="M401.281 374.435H408.198V347.614H401.281Z" fill="#231f20"/><path transform="matrix(1,0,0,-1,411.6558,430.9959)" d="M0 0C0 8.284 6.273 13.873 14.315 13.873 20.99 13.873 24.449 10.214 26.218 6.675L20.267 3.86C19.382 5.992 17.09 7.761 14.315 7.761 10.133 7.761 7.037 4.383 7.037 0 7.037-4.383 10.133-7.761 14.315-7.761 17.09-7.761 19.382-5.992 20.267-3.86L26.218-6.675C24.489-10.133 20.99-13.873 14.315-13.873 6.273-13.873 0-8.243 0 0" fill="#231f20"/><path transform="matrix(1,0,0,-1,440.849,444.3864)" d="M0 0V26.821H19.664V20.991H6.917V16.527H19.382V10.656H6.917V5.831H19.664V0Z" fill="#231f20"/></g></g></g></svg>